<svg width="1000" height="1000" viewBox="0 0 1000 1000" fill="none" xmlns="http://www.w3.org/2000/svg">
<g clip-path="url(#clip0_1661_2)">
<path d="M245.487 196.83L149.248 252.409L152.171 257.473L248.41 201.894L245.487 196.83Z" fill="#B300FF"/>
<path d="M149.26 368.639L245.499 424.218L248.422 419.154L152.183 363.576L149.26 368.639Z" fill="#B300FF"/>
<path d="M326.092 401.771L246.957 447.468L131.14 380.586L128.386 378.995V245.232V242.048L131.14 240.457L244.198 175.168L246.957 173.575L249.714 175.168L365.529 242.048V245.232V329.619H371.374V245.232V242.484L460.553 213.501L458.746 207.942L372.18 236.075L368.785 237.178L248.416 167.665L246.957 166.824L245.496 167.665L128.22 235.393V235.39L124.002 237.826L122.54 238.669V240.36V245.232V378.995L119.783 380.586L2.50732 448.314L5.42759 453.378L122.703 385.653L125.463 384.06L128.22 385.653L241.277 450.942L245.496 453.378L246.957 454.219L248.416 453.378L329.012 406.835L326.092 401.771Z" fill="#B300FF"/>
<path d="M492.375 399.106L557.697 309.18L552.968 305.743L487.646 395.669L492.375 399.106Z" fill="#B300FF"/>
<path d="M391.003 262.64L468.338 237.509L466.532 231.948L389.196 257.079L391.003 262.64Z" fill="#B300FF"/>
<path d="M920.479 403.863H809.348V409.71H920.479V403.863Z" fill="#B300FF"/>
<path d="M917.943 215.745L973.508 312.008L978.57 309.084L923.005 212.822L917.943 215.745Z" fill="#B300FF"/>
<path d="M806.816 212.818L751.25 309.08L756.312 312.003L811.878 215.741L806.816 212.818Z" fill="#B300FF"/>
<path d="M1010.07 307.598H1006.89L1005.3 304.84L940.027 191.756L937.591 187.536L936.751 186.075H935.061H930.189H799.642H794.771L793.083 186.072L792.238 187.539L722.938 307.6H719.755H585.825L537.508 241.081L532.78 244.521L579.107 308.302L580.722 310.524L579.107 312.746L500.757 420.612L498.144 419.762L411.578 391.629L409.771 397.188L499.554 426.369L540.939 553.773L541.923 556.801L460.066 647.736L358.329 626.105L357.109 631.823L455.548 652.752L449.181 659.826L448.051 661.079L448.575 662.687L451.514 671.739L353.078 650.81L351.86 656.528L453.599 678.159L475.585 745.84L481.143 744.033L455.635 665.512L454.652 662.484L547.394 559.459L548.524 558.207L548 556.599L546.495 551.965L505.109 424.561L507.097 421.825L585.82 313.447H719.75H722.933L789.798 429.287L792.233 433.506L793.073 434.971H794.764H799.635H930.182H935.053L936.741 434.973L937.586 433.506L1006.89 313.445H1010.07H1145.49V307.598H1010.07ZM933.37 429.121H930.187H799.64H796.456L794.866 426.366L727.999 310.521L794.866 194.677L796.456 191.919H799.64H930.187H933.37L934.961 194.674L1001.83 310.519L933.37 429.121Z" fill="#B300FF"/>
<path d="M536.769 807.203L631.342 827.31L632.557 821.591L537.984 801.484L536.769 807.203Z" fill="#B300FF"/>
<path d="M398.657 897.55L403.001 901.463L459.056 839.22L454.713 835.307L398.657 897.55Z" fill="#B300FF"/>
<path d="M395.852 413.871V345.213H387.383V399.123H386.954L349.376 345.213H341.051V413.871H349.517V360.151H349.946L387.527 413.871H395.852Z" fill="#B300FF"/>
<path d="M482.941 176.466H483.37L520.951 230.186H529.275V161.525H520.807V215.435H520.378L482.8 161.525H474.475V230.186H482.941V176.466Z" fill="#B300FF"/>
<path d="M314.131 596.563C294.675 596.563 282.497 610.267 282.497 632.058C282.497 653.85 294.675 667.507 314.131 667.507C333.586 667.507 345.764 653.85 345.764 632.058C345.764 610.267 333.586 596.563 314.131 596.563ZM314.131 659.609C300.097 659.609 291.297 648.951 291.297 632.058C291.297 615.12 300.097 604.462 314.131 604.462C328.164 604.462 336.964 615.12 336.964 632.058C336.964 648.951 328.164 659.609 314.131 659.609Z" fill="#B300FF"/>
<path d="M513.639 813.676H513.21L475.629 759.766H467.304V828.424H475.773V774.707H476.202L513.783 828.424H522.105V759.766H513.639V813.676Z" fill="#B300FF"/>
</g>
<defs>
<clipPath id="clip0_1661_2">
<rect width="1000" height="1000" fill="white"/>
</clipPath>
</defs>
</svg>
